<?xml version="1.0" standalone="no"?>
<!DOCTYPE svg PUBLIC "-//W3C//DTD SVG 20010904//EN"
 "http://www.w3.org/TR/2001/REC-SVG-20010904/DTD/svg10.dtd">
<svg version="1.0" xmlns="http://www.w3.org/2000/svg"
 width="192.000000pt" height="192.000000pt" viewBox="0 0 192.000000 192.000000"
 preserveAspectRatio="xMidYMid meet">
<metadata>
Created by potrace 1.11, written by Peter Selinger 2001-2013
</metadata>
<g transform="translate(0.000000,192.000000) scale(0.100000,-0.100000)"
fill="#000000" stroke="none">
<path d="M810 1744 c-188 -37 -348 -133 -468 -279 -126 -153 -184 -325 -176
-525 4 -135 8 -154 46 -260 84 -237 296 -428 549 -496 85 -22 265 -27 355 -8
216 45 387 161 511 348 90 135 133 290 128 461 -10 352 -243 649 -585 745 -93
26 -266 33 -360 14z m447 -221 c162 -90 262 -214 316 -390 19 -63 23 -98 22
-183 -2 -143 -35 -245 -117 -362 -38 -53 -44 -58 -53 -42 -20 37 -74 81 -105
88 -18 3 -52 6 -75 6 l-43 0 -4 138 c-3 121 -5 141 -22 158 -18 18 -38 19
-278 22 l-258 3 0 79 0 80 94 0 c85 0 95 2 120 25 25 23 26 29 26 119 l0 94
108 4 c102 3 111 5 146 32 34 25 68 81 65 103 -3 17 1 53 6 53 2 0 26 -12 52
-27z m-722 -618 l185 -185 0 -55 c0 -31 6 -70 14 -88 17 -43 68 -85 111 -93
l35 -6 0 -74 c0 -84 1 -83 -85 -60 -213 58 -373 212 -445 426 -32 96 -38 320
-9 320 5 0 92 -83 194 -185z"/>
</g>
</svg>
